<?xml version="1.0" ?><!DOCTYPE svg  PUBLIC '-//W3C//DTD SVG 1.1//EN'  'http://www.w3.org/Graphics/SVG/1.1/DTD/svg11.dtd'><svg enable-background="new 0 0 512 512" height="512px" id="Layer_1" version="1.1" viewBox="0 0 512 512" width="512px" xml:space="preserve" xmlns="http://www.w3.org/2000/svg" xmlns:xlink="http://www.w3.org/1999/xlink"><path d="M512,432c0,44.182-35.816,80-80,80H79.998c-44.183,0-80-35.818-80-80V80c0-44.183,35.817-80,80-80H432  c44.184,0,80,35.817,80,80V432z" fill="#CA4638"/><path d="M512,432V309.227L347.887,145.113l-14.367,14.366C315.248,138.282,289.074,125,259.999,125  c-55.229,0-100,47.906-100,107c0,28.508,10.422,54.413,27.41,73.59l-3.912,3.912l7,7l-22.925,22.924L340.145,512H432  C476.184,512,512,476.182,512,432z" fill="#8E2F28"/><g id="Icon" transform="translate(-60.000000, -409.000000)"><path d="M440.464,700.799C481.839,600.262,399.685,518.921,310.301,515   c-17.413,1.989-34.111,2.565-47.957,10.225c-33.436,13.779-63.669,46.525-75.363,81.824   C155.59,701.791,243.32,802.033,346.27,782.611C366.031,813.723,419.994,815,419.994,815l-0.076-20.453   c0,0-29.523-8.76-34.258-27.273C406.178,745.963,428.121,730.832,440.464,700.799L440.464,700.799z M368.535,724.65   c-1.143,0.568-2.277,1.145-3.431,1.711c-18.031-31.215-64.206-31.668-64.206-31.668v27.273c0,0,23.182,9.508,26.536,26.727   c1.134,1.135,2.287,2.27,3.421,3.402c-93.167,28.635-127.984-164.752-39.389-202.583c14.043-9.195,34.853-4.65,47.952,1.705   C402.416,587.746,402.454,664.734,368.535,724.65L368.535,724.65z" fill="#FFFFFF" id="quora_1_"/></g></svg>